<?xml version="1.0" encoding="UTF-8"?>
<svg id="Layer_1" data-name="Layer 1" xmlns="http://www.w3.org/2000/svg" viewBox="0 0 263.1 177.78">
  <path d="m13.8,22.9l75.99,63.72L13.8,150.35V22.9Zm223.02-9.1l-104.44,87.59c-.17.14-.44.14-.61,0L27.33,13.8h209.49Zm12.48,136.55l-75.99-63.72,75.99-63.72v127.45Zm-87.6-53.98l80.62,67.61H20.78l80.62-67.61,26.06,21.86c2.25,1.88,5.9,1.9,8.11.05l26.12-21.9ZM10.5,0h242.1c5.77,0,10.5,4.73,10.5,10.5v156.78c0,5.77-4.72,10.5-10.5,10.5H10.5c-5.77,0-10.5-4.72-10.5-10.5V10.5C0,4.73,4.72,0,10.5,0Z" style="fill: #9e9e9e; fill-rule: evenodd;"/>
</svg>