<?xml version="1.0" encoding="UTF-8"?>
<svg id="Layer_1" data-name="Layer 1" xmlns="http://www.w3.org/2000/svg" viewBox="0 0 187.84 229.96">
  <path d="m75.81,58.32c-2.87-28.04-4.49-43.86-4.86-47.46-1.39-13.62-29.67-12.37-40.24-7.36C-13.96,24.64-1.24,84.7,15.02,120.97c30.88,59.69,65.13,94.56,102.74,104.59,29.44,10.49,67.54,3.3,69.98-33.22.33-4.99-.17-9.03-1.5-12.13-2.28-4.65-18.76-13.39-49.45-26.2-5.95-2.13-12.89.29-20.84,7.26-1.19,1.06-2.38,1.98-3.57,2.76-5.83,3.78-9.11,4.09-14.48-.04-16.37-12.61-41.18-57.11-46.4-70.46-1.3-5.34,1.03-9.47,6.97-12.4,11.5-5.11,17.28-12.72,17.34-22.81" style="fill: #9e9e9e; fill-rule: evenodd;"/>
</svg>