<?xml version="1.0" encoding="UTF-8"?>
<svg id="Layer_1" data-name="Layer 1" xmlns="http://www.w3.org/2000/svg" viewBox="0 0 347.47 347.48">
  <path d="m173.74,0c47.98,0,91.41,19.45,122.85,50.89,31.44,31.44,50.89,74.88,50.89,122.85s-19.45,91.41-50.89,122.85c-31.44,31.44-74.87,50.89-122.85,50.89s-91.41-19.45-122.85-50.89C19.45,265.15,0,221.71,0,173.74S19.45,82.33,50.89,50.89C82.33,19.45,125.76,0,173.74,0" style="fill: #3eba8b;"/>
  <path d="m158.63,126.46c-2.4-23.4-3.75-36.59-4.06-39.59-1.16-11.36-24.75-10.32-33.58-6.14-37.26,17.64-26.65,67.75-13.09,98.01,25.76,49.8,54.33,78.89,85.72,87.26,24.56,8.75,56.35,2.75,58.39-27.72.28-4.16-.14-7.54-1.25-10.12-1.9-3.88-15.66-11.17-41.26-21.86-4.96-1.77-10.76.25-17.39,6.06-.99.89-1.98,1.65-2.98,2.3-4.86,3.15-7.6,3.41-12.08-.03-13.66-10.52-34.36-47.65-38.71-58.79-1.08-4.45.86-7.9,5.82-10.34,9.59-4.26,14.41-10.61,14.46-19.03" style="fill: #fff; fill-rule: evenodd;"/>
</svg>