<?xml version="1.0" encoding="UTF-8"?>
<svg id="Layer_1" data-name="Layer 1" xmlns="http://www.w3.org/2000/svg" viewBox="0 0 347.47 347.48">
  <path d="m173.74,0c47.98,0,91.41,19.45,122.85,50.89,31.44,31.44,50.89,74.88,50.89,122.85s-19.45,91.41-50.89,122.85c-31.44,31.44-74.87,50.89-122.85,50.89s-91.41-19.45-122.85-50.89C19.45,265.15,0,221.71,0,173.74S19.45,82.33,50.89,50.89C82.33,19.45,125.76,0,173.74,0" style="fill: #3eba8b;"/>
  <path d="m173.74,111.73c19.16,0,34.7,15.53,34.7,34.7s-15.53,34.7-34.7,34.7-34.7-15.53-34.7-34.7,15.53-34.7,34.7-34.7m0-37.95c40.12,0,72.65,32.52,72.65,72.65,0,1.55-.05,3.09-.15,4.62h0s-.06.91-.06.91v.08c-3.23,47.17-47.24,91.04-75.31,121.65-23.95-29.18-57.76-70.93-67.23-108.16-1.65-6.09-2.54-12.49-2.54-19.1,0-40.12,32.52-72.65,72.65-72.65Z" style="fill: #fff; fill-rule: evenodd;"/>
</svg>