<?xml version="1.0" encoding="UTF-8"?>
<svg id="Layer_1" data-name="Layer 1" xmlns="http://www.w3.org/2000/svg" viewBox="0 0 347.47 347.48">
  <path d="m173.74,0c47.97,0,91.41,19.45,122.85,50.89,31.44,31.44,50.89,74.88,50.89,122.85s-19.45,91.41-50.89,122.85c-31.44,31.44-74.88,50.89-122.85,50.89s-91.41-19.45-122.85-50.89C19.45,265.15,0,221.71,0,173.74S19.45,82.33,50.89,50.89,125.76,0,173.74,0" style="fill: #3eba8b;"/>
  <path d="m82.48,122.6l58.89,49.39-58.89,49.39v-98.77Zm172.84-7.05l-80.95,67.88c-.13.11-.34.11-.47,0l-80.94-67.88h162.36Zm9.67,105.83l-58.89-49.39,58.89-49.39v98.77Zm-67.89-41.84l62.48,52.4H87.89l62.48-52.4,20.2,16.94c1.74,1.46,4.57,1.48,6.29.04l20.24-16.97Zm-117.18-74.69h187.63c4.48,0,8.14,3.66,8.14,8.14v121.51c0,4.48-3.66,8.14-8.14,8.14H79.92c-4.48,0-8.14-3.66-8.14-8.14v-121.51c0-4.47,3.66-8.14,8.14-8.14Z" style="fill: #fff; fill-rule: evenodd;"/>
</svg>