<svg xmlns="http://www.w3.org/2000/svg" version="1.1" xmlns:xlink="http://www.w3.org/1999/xlink" width="512" height="512" x="0" y="0" viewBox="0 0 65 65" style="enable-background:new 0 0 512 512" xml:space="preserve" class=""><g><path d="M63.637 35.381A1.498 1.498 0 0 0 62.356 35l-4.684.816-3.041.158-2.6-11.496a1.523 1.523 0 0 0-.079-.248l-1.719-4.11-1.118-3.427a1.501 1.501 0 0 0-1.711-1.007l-16.83 3.26L2.09 24.703a1.499 1.499 0 0 0-1.176 1.753l1.515 7.88a1.499 1.499 0 0 0 2.545.766l3.356-3.425 1.507-.422c.265-.074.504-.22.692-.42l1.061-1.136c.056-.06.106-.124.152-.192l.667-1 .061.026c.225.099.472.141.716.122l1.969-.151c.303-.023.591-.138.827-.329l1.929-1.559 1.293-.97.618-.176.544.399c.062.045.127.086.196.122l1.859.965 1.217 1.149.985 1.061c.171.184.386.322.625.402l2.371.791-.185.892c-.151.73.257 1.461.958 1.715l4.396 1.59a1.497 1.497 0 0 0 1.677-.468l.725-.898.452.306-.808 1.27a1.473 1.473 0 0 0-.202.494l-.467 2.204-1.192 1.722a1.499 1.499 0 0 0-.267.854v1.591c0 .181.033.359.096.527l.228.605c.113.3.319.556.587.73l1.516.984c.11.071.229.129.354.169l2.575.835c.161.053.329.074.498.073l3.004-.071 2.105.68c.081.026.164.045.249.058l1.592.228a1.51 1.51 0 0 0 1.566-.841l.757-1.591c.087-.184.135-.379.144-.575l.533.068c.021.081.048.16.082.238l.74 1.685.127 1.136c.022.205.088.404.191.583l.832 1.44a1.497 1.497 0 0 0 1.299.75c.396 0 .777-.156 1.061-.439.932-.931 1.122-1.461 1.122-1.97 0-.104 0-.222-.107-.735.055.031.111.058.17.082l.757.304c.355.142.751.145 1.105.004l5.606-2.197a1.5 1.5 0 0 0 .822-.784l1.288-2.879a1.54 1.54 0 0 0 .123-.457l.379-3.636a1.51 1.51 0 0 0-.47-1.254zm-19.313-5.776c.029.007.059.013.088.018l.222.037.179 1.972-.647.309c-.009.004-.018.008-.025.013l.233-.952c.04-.164.052-.332.036-.5z" fill="#00ca90" opacity="1" data-original="#000000"></path></g></svg>