<svg xmlns="http://www.w3.org/2000/svg" version="1.1" xmlns:xlink="http://www.w3.org/1999/xlink" width="512" height="512" x="0" y="0" viewBox="0 0 64 64" style="enable-background:new 0 0 512 512" xml:space="preserve" class=""><g><path d="M59.51 25.81a.33.33 0 0 0 0-.24.37.37 0 0 0-.14-.21.3.3 0 0 0-.21 0 .12.12 0 0 0-.08.06H59a.26.26 0 0 0 0-.15.41.41 0 0 0-.23-.13.36.36 0 0 0-.21.07.27.27 0 0 0-.08.07h-.18l-.11-.11v-.06A.46.46 0 0 0 58 25a.28.28 0 0 0-.18 0 .21.21 0 0 1 0-.06.44.44 0 0 0 0-.16.66.66 0 0 0-.12-.27.57.57 0 0 0-.23-.16.24.24 0 0 0-.12 0h-.06a.42.42 0 0 1-.11-.15.78.78 0 0 1 0-.26.25.25 0 0 0 0-.08c.07 0 .17-.06.19-.14a.41.41 0 0 0-.1-.38.32.32 0 0 0-.24-.08.23.23 0 0 0-.14.09.21.21 0 0 0 0-.06.29.29 0 0 0-.23-.23.39.39 0 0 1 0-.09.35.35 0 0 0-.12-.21.2.2 0 0 0-.15 0h-.07a.37.37 0 0 1-.06-.08s0-.06 0-.1a.52.52 0 0 0-.26-.28 1 1 0 0 0-.14-.15l-.1-.06h-.07a1.3 1.3 0 0 1-.1-.15.82.82 0 0 1 0-.18.33.33 0 0 1 .14 0 .31.31 0 0 0 .19 0 .43.43 0 0 0 .18-.34.25.25 0 0 0-.1-.22.82.82 0 0 1 0-.2.57.57 0 0 1 .07-.17.9.9 0 0 1 .11-.1h.07a.36.36 0 0 0 .23 0 .37.37 0 0 0 .12-.23.39.39 0 0 0 0-.21.31.31 0 0 1 0-.08v-.14l.06.05v.05a.45.45 0 0 0 .13.11.47.47 0 0 0 .31 0 .56.56 0 0 0 .23-.2.51.51 0 0 0 0-.24.44.44 0 0 0-.15-.26.26.26 0 0 0-.15 0 .67.67 0 0 0 .06-.12.46.46 0 0 0 .08-.21.41.41 0 0 0-.11-.25.58.58 0 0 0-.21-.09.29.29 0 0 0-.13 0 .36.36 0 0 1 0-.07.36.36 0 0 0 .07-.22.4.4 0 0 0-.22-.25.44.44 0 0 0-.28 0 .31.31 0 0 0-.1 0h-.05a.28.28 0 0 0-.23 0 .26.26 0 0 0-.05.19.38.38 0 0 1 0 .11h-.31a1.14 1.14 0 0 1-.22-.12v-.06a.31.31 0 0 0-.15-.2.25.25 0 0 0-.21 0h-.1v-.07a.3.3 0 0 0 0-.13.48.48 0 0 0-.16-.24.32.32 0 0 0-.16 0l-.06-.06a1.25 1.25 0 0 0-.17-.12h-.14a.52.52 0 0 1-.07-.11.12.12 0 0 0-.12-.09l-8.29.24-9.83.09-13-.11-8.13-.16-9.41-.36a.12.12 0 0 0-.12.12L3.87 46.15a.12.12 0 0 0 .12.13l14.76.37 13.08.19h9.07l9-.17L60 46.3a.12.12 0 0 0 .09 0 .11.11 0 0 0 0-.08l-.71-20.26a.35.35 0 0 0 .13-.15zm-2.68-6.14h.11-.07z" fill="#00ca90" opacity="1" data-original="#000000"></path></g></svg>