<svg xmlns="http://www.w3.org/2000/svg" version="1.1" xmlns:xlink="http://www.w3.org/1999/xlink" width="512" height="512" x="0" y="0" viewBox="0 0 65 65" style="enable-background:new 0 0 512 512" xml:space="preserve"><g><path d="m64.736 47.448-.593-.863a1.494 1.494 0 0 0-1.423-.64l-.484.061-.443-.527-.634-1.679.309-.89c.147-.428.095-.9-.146-1.285l-1.004-1.606-.92-2.351a1.503 1.503 0 0 0-1.171-.937l-2.07-.314-3.113-2.563-.783-1.497.277-1.146 1.157-3.155c.026-.073.048-.147.063-.223l.323-1.617a1.499 1.499 0 0 0-.771-1.621l-1.023-.539a1.496 1.496 0 0 0-.569-.167l-2.943-.256v-1.808c0-.504-.253-.974-.673-1.251l-2.706-1.788-3.53-3.824-1.098-3.481-.217-1.822.292-1c.14-.48.03-1-.291-1.383l-1.288-1.537-.568-1.137a1.514 1.514 0 0 0-1.497-.821l-4.085.427-5.338.321-26.313.647A1.502 1.502 0 0 0 .158 7.347l.526 1.052-.036.797a1.5 1.5 0 0 0 .234.875l1.24 1.94c.023.037.049.072.075.107l1.618 2.103c.045.058.093.113.146.164l1.671 1.617c.251.243.579.391.927.417l.772.06-.467.45a1.5 1.5 0 0 0-.47.803l-.27 1.24a1.5 1.5 0 0 0 .212 1.141l1.132 1.726c.025.04.053.078.083.114l1.293 1.617c.068.085.145.162.229.23l.922.744.621 5.543-.426 21.469c-.001.054 0 .107.005.161l.27 3.072a1.5 1.5 0 0 0 1.494 1.369h.013l12.81-.108 12.577-.377 16.629-.666.41.689-.151.587-1.284 1.036a1.498 1.498 0 0 0-.503.765l-.271.971a1.501 1.501 0 0 0 1.302 1.896l2.804.27a1.506 1.506 0 0 0 .533-.045l2.211-.594a1.502 1.502 0 0 0 1.04-.99l.916-2.857c.034-.107.057-.219.066-.331l.215-2.543 1.653-1.339.894-.471a1.5 1.5 0 0 0 .802-1.327v-1.249l.252-.576a1.51 1.51 0 0 0-.141-1.451z" fill="#00ca90" opacity="1" data-original="#000000"></path></g></svg>