<svg xmlns="http://www.w3.org/2000/svg" version="1.1" xmlns:xlink="http://www.w3.org/1999/xlink" width="512" height="512" x="0" y="0" viewBox="0 0 65 65" style="enable-background:new 0 0 512 512" xml:space="preserve" class=""><g><path d="M63.503 23.508a1.506 1.506 0 0 0-1.435-.189l-2.677 1.044a1.5 1.5 0 0 0-.952 1.484l.033.571-.252 1.186-.685 1.797a1.5 1.5 0 0 0-.084.324 1.496 1.496 0 0 0-.491-.695l.112-1.327a1.5 1.5 0 0 0-.294-1.027l-.408-.544a1.5 1.5 0 0 0-1.014-.588l-.962-.121-.641-.611a1.498 1.498 0 0 0-.764-.39l-2.114-.389-2.796-.987-.238-.155-.022-.109.332-.364c.194-.194.331-.438.396-.705l.364-1.498a1.505 1.505 0 0 0-.274-1.276l-.636-.817a1.495 1.495 0 0 0-.675-.49l-2.68-.966.009-.042a1.502 1.502 0 0 0-.97-1.718l-1.544-.545a1.504 1.504 0 0 0-1.33.166c-.393.261-.64.692-.666 1.163l-.009.145-.987-.463c-.031-.015-.063-.028-.095-.041l-1.635-.635a1.497 1.497 0 0 0-2.043 1.366l-.038 1.803-.682 1.629-.321.611-1.017.8c-.24.189-.417.446-.506.738l-.1.326-.485.097a1.502 1.502 0 0 0-1.175 1.163l-.534 2.546-.047.002-.414-.605a1.496 1.496 0 0 0-1.671-.626l-.317.091a1.5 1.5 0 0 0-1.079 1.283l-.208 1.963-.737 2.13-2.149 4.7a1.5 1.5 0 0 0 .117 1.457l.077.115-.016.211-.345.395a1.48 1.48 0 0 0-1.067.27l-.859.617-.387-.113a1.498 1.498 0 0 0-1.82.899l-.501 1.298-.807.228-.569-.284a1.498 1.498 0 0 0-1.572.142l-.733.55-.595.22-.798-.188-1.314-1.57a1.499 1.499 0 0 0-1.132-.537 1.46 1.46 0 0 0-1.145.51L9.487 40 7.69 41.62a1.46 1.46 0 0 0-.178.191l-2.587 3.313a1.499 1.499 0 0 0-.318.923v.076l-1.164.654-1.86 1.18a1.5 1.5 0 0 0 .936 2.761l3.137-.283 4.571-.711 3.208-.043c.321-.005.632-.111.888-.307l.64-.486.382.053c.058.008.115.012.173.014l2.178.045c.082.002.165-.004.246-.016l17.519-2.541c.034-.005.068-.011.103-.019l25.825-5.583a1.501 1.501 0 0 0 .971-2.234l-1.68-2.813a1.508 1.508 0 0 0-.187-.25l.923-.796c.195-.169.344-.385.431-.628l.816-2.27a1.51 1.51 0 0 0 .073-.727l-.202-1.369.129-1.479 1.053-1.378a1.5 1.5 0 0 0 .304-.804l.09-1.271a1.502 1.502 0 0 0-.607-1.314z" fill="#00ca90" opacity="1" data-original="#000000"></path></g></svg>