<?xml version="1.0" encoding="UTF-8"?>
<svg id="Layer_1" data-name="Layer 1" xmlns="http://www.w3.org/2000/svg" viewBox="0 0 2548.81 1230.55">
  <path d="m1274.4,205.46v-67.36l-473.04,273.11v546.23l473.04,273.11v-67.36l-414.71-239.44v-478.86l414.71-239.44Z" style="fill: #3f70b7;"/>
  <polygon points="1747.45 411.21 1747.45 957.44 1274.4 1230.55 1274.4 1163.19 1689.11 923.75 1689.11 444.89 1274.4 205.46 1274.4 138.1 1747.45 411.21" style="fill: #3f70b7;"/>
  <polygon points="2487.33 493.31 1787 493.31 1787 411.21 2548.81 411.21 2487.33 493.31" style="fill: #c1282d;"/>
  <polygon points="2371.47 648.02 1787 648.02 1787 565.92 2432.96 565.92 2371.47 648.02" style="fill: #fff;"/>
  <polygon points="2255.62 802.73 1787 802.73 1787 720.63 2317.1 720.63 2255.62 802.73" style="fill: #3e70b7;"/>
  <polygon points="2139.77 957.44 1787 957.44 1787 875.33 2201.25 875.33 2139.77 957.44" style="fill: #fff;"/>
  <polygon points="61.48 493.31 761.81 493.31 761.81 411.21 0 411.21 61.48 493.31" style="fill: #c1282d;"/>
  <polygon points="177.33 648.02 761.81 648.02 761.81 565.92 115.85 565.92 177.33 648.02" style="fill: #fff;"/>
  <polygon points="293.19 802.73 761.81 802.73 761.81 720.63 231.7 720.63 293.19 802.73" style="fill: #3e70b7;"/>
  <polygon points="409.04 957.44 761.81 957.44 761.81 875.33 347.56 875.33 409.04 957.44" style="fill: #fff;"/>
  <path d="m1655.7,845.18c0-115.87-78.59-140.07-136.22-140.07-12.22-1.48-23.75-2.69-33.6-4.08-9.85-1.39-18.02-2.96-23.53-5.14l-83.64,67.2,79.16-69.47c-22.68-13.69-26.11-25.67-26.11-25.67l-97.23,90.67-11.54-20.03,12.75,13.36,92.73-93.35-4.1-4.99-99.55,63.74,98.94-67.99-2.43-63.92c-10.09,5.17-21.93-.76-22.44-1.02,44.91,10.89,67.36-68,51.58-74.68-15.78-6.68-29.74,6.68-29.74,6.68,9.1-20.64,38.85-9.11,38.85-9.11,90.44-15.17,2.43-92.87-30.96-122.62-33.39-29.74-124.44-72.84-189.4-37.63-64.95,35.2-4.85,97.12-4.85,97.12,0,0,29.92-15.52,101.98-11.03-6.79-.33-60.58-2.36-102.22,13.05l6.37,15.62s45.68-9.84,68.81-8.97l-69.57,12.93-24.79,25.41s79.73,12.41,162.56-9.77c-1.86.65-71.12,24.61-136.7,16.93,0,0,1.18,30.02,13.42,42.9l16.65-21.4-33.3,51.42,30.85,5.87h-17.63s4.49,62.4,15.9,81.46c11.13,18.58,69.55-9.65,72.43-11.05-2.16,1.29-37.03,21.95-51.24,21.95,0,0,22.43,23.31,27.68,49.59,0,0-9.08-18.64-19.59-21.5,0,0-9.68,12.77-12.52,40.05l26.71-5.68-32.36,11,3.76-21.61s-35.35,3.85-69.25,6.43c0,0-3.51.25-10.97.66-7.46.41-18.87.99-34.66,1.64-31.6,1.3-30.33,116.95-30.33,116.95,0,0-7.44-55.94-2.02-78.68,0,0-107.3,11.97-144.14,46.6.65-.77,21.64-25.38,41.79-27.64,0,0,15.81-10.78,35.56-128.71l-55.88,2.85,59.83-7.34,10.16-12.98s23.39,2.31,46.4-5.03v-7.42l4.86,5.72c9.4-3.61,18.45-8.99,25.5-16.98,25.4-28.78,53.9-72.73,6.04-38.25.68-1,22.61-33.04,38.85-50.97,18.04-19.91,20.07-55.59-9.26-17.54-28.41,36.86-33.39,42.1-33.68,42.4.58-.82,26.66-37.4,37.24-51.51,10.71-14.27-1.19-23.39-15.06-5.55-13.29,17.09-28.77,35.64-30.04,37.16,1.56-2.1,26.65-35.82,32.02-43.11,5.55-7.53-10.55-18.36-36.86,20.22-15.22,22.32-18.63,22.89-18.63,22.89,0,0,28.82-35.76,21.8-40.73-4.14-2.93-16.02,2.92-16.02,2.92-34.33,22.44-66.74,64.69-72.35,104.57,0,0,0-16.36,5.08-26.52l-64.91,78.45,13.55-21.45-63.78,28.2s6.81,32.58-13.39,84.85c.26-1.12,9.09-38.68,8.45-60.47,0,0-20.82,84.57-43.59,115.8-8.51,11.67-15.02,28.78-15.02,45.51v62.62l385.54,222.6,368.64-212.84,16.75-9.67c-.08-3.23-1.97-42.62-4.09-61.82Zm-388.02-431.38l-13.15-9.23-13.15,9.23,2.48-19.31-9.5-12.37,13.21-2.56,6.96-18.85,6.97,18.85,13.2,2.56-9.5,12.37,2.48,19.31Z" style="fill: #fff;"/>
  <polygon points="1298.1 57.72 1303.71 90.45 1274.32 75 1274.32 0 1289.01 29.77 1321.87 34.55 1298.1 57.72" style="fill: #fff;"/>
  <polygon points="1274.32 0 1274.32 75 1244.93 90.45 1250.54 57.72 1226.77 34.55 1259.63 29.77 1274.32 0" style="fill: #fff;"/>
  <polygon points="1402.32 141.2 1426.76 154.05 1422.1 126.83 1441.87 107.56 1414.54 103.58 1402.32 78.82 1390.1 103.58 1362.78 107.56 1382.55 126.83 1377.88 154.05 1402.32 141.2" style="fill: #fff;"/>
  <polygon points="1500.58 198.48 1520.05 208.71 1516.33 187.03 1532.08 171.68 1510.32 168.51 1500.58 148.79 1490.84 168.51 1469.07 171.68 1484.83 187.03 1481.11 208.71 1500.58 198.48" style="fill: #fff;"/>
  <polygon points="1146.32 141.2 1121.87 154.05 1126.54 126.83 1106.77 107.56 1134.09 103.58 1146.32 78.82 1158.54 103.58 1185.86 107.56 1166.09 126.83 1170.76 154.05 1146.32 141.2" style="fill: #fff;"/>
  <polygon points="1048.06 198.48 1028.59 208.71 1032.31 187.03 1016.55 171.68 1038.32 168.51 1048.06 148.79 1057.8 168.51 1079.56 171.68 1063.81 187.03 1067.53 208.71 1048.06 198.48" style="fill: #fff;"/>
</svg>